<?xml version="1.0" encoding="UTF-8"?>
<svg version="1.1" xmlns="http://www.w3.org/2000/svg" width="500" height="500">
<path d="M0 0 C3.65518634 1.6577853 6.90637913 3.76058926 10.23046875 6 C11.76027723 7.01062777 13.29022904 8.0210386 14.8203125 9.03125 C15.59745605 9.54816406 16.37459961 10.06507812 17.17529297 10.59765625 C20.69457846 12.92943448 24.24425392 15.21337689 27.79296875 17.5 C36.51594433 23.14064848 45.22399872 28.80424634 53.93212891 34.46777344 C58.11442738 37.18758969 62.29748179 39.90624278 66.48046875 42.625 C68.14713914 43.70832761 69.8138058 44.79166095 71.48046875 45.875 C72.30546875 46.41125 73.13046875 46.9475 73.98046875 47.5 C81.48046875 52.375 81.48046875 52.375 83.98120117 54.00048828 C85.64541155 55.0822169 87.30963678 56.16392268 88.97387695 57.24560547 C93.1782477 59.97830245 97.38234789 62.71141405 101.5859375 65.4453125 C111.51705555 71.9036323 121.45547491 78.35045853 131.40380859 84.78222656 C134.92995191 87.06223929 138.45515684 89.34370206 141.98046875 91.625 C143.39713105 92.54167341 144.81379772 93.45834008 146.23046875 94.375 C154.73046875 99.875 163.23046875 105.375 171.73046875 110.875 C172.43308838 111.32955566 173.13570801 111.78411133 173.85961914 112.25244141 C175.26274879 113.16051035 176.66558558 114.06903198 178.06811523 114.97802734 C181.81450235 117.4052149 185.56705534 119.82217779 189.328125 122.2265625 C190.11703125 122.73251953 190.9059375 123.23847656 191.71875 123.75976562 C193.24426235 124.73788825 194.77155328 125.71324362 196.30078125 126.68554688 C198.04459175 127.8056225 199.76530954 128.9615253 201.48046875 130.125 C201.48046875 130.455 201.48046875 130.785 201.48046875 131.125 C192.24046875 131.125 183.00046875 131.125 173.48046875 131.125 C173.53043251 134.07963699 173.53043251 134.07963699 173.58140564 137.09396362 C173.88819076 155.66208323 174.11127192 174.22986824 174.25765133 192.79995537 C174.33491218 202.3471486 174.44018169 211.89247923 174.61206055 221.43847656 C174.76184976 229.76162226 174.85840437 238.08341908 174.89179617 246.40787518 C174.91131072 250.81413208 174.95694814 255.2165314 175.0664196 259.6215477 C175.70786044 286.44272052 175.70786044 286.44272052 172.0087986 292.55793571 C168.10307789 296.64061952 163.76199966 298.37359478 158.48046875 300.125 C155.95723692 301.59959672 155.95723692 301.59959672 154 303.05078125 C152.76498782 303.84738594 151.52931851 304.64297286 150.29296875 305.4375 C148.85794114 306.36307698 147.42305129 307.28886756 145.98828125 308.21484375 C145.25512695 308.68776855 144.52197266 309.16069336 143.76660156 309.64794922 C139.72835107 312.25702819 135.69833015 314.87875728 131.66796875 317.5 C130.83177002 318.04374268 129.99557129 318.58748535 129.1340332 319.14770508 C127.43225672 320.2543408 125.73051531 321.36103044 124.02880859 322.46777344 C119.84651012 325.18758969 115.66345571 327.90624278 111.48046875 330.625 C109.81379836 331.70832761 108.1471317 332.79166095 106.48046875 333.875 C103.14713542 336.04166667 99.81380208 338.20833333 96.48046875 340.375 C95.65522705 340.91141113 94.82998535 341.44782227 93.97973633 342.00048828 C92.31552595 343.0822169 90.65130072 344.16392268 88.98706055 345.24560547 C84.7826898 347.97830245 80.57858961 350.71141405 76.375 353.4453125 C67.89188238 358.96194114 59.40432333 364.47150231 50.90673828 369.96582031 C42.96342576 375.10332298 35.03373463 380.26175284 27.10351562 385.41943359 C24.35980337 387.20345945 21.61551993 388.98660386 18.87109375 390.76953125 C17.50174683 391.65922607 17.50174683 391.65922607 16.10473633 392.56689453 C14.34944442 393.7073159 12.59407662 394.84762047 10.83862305 395.98779297 C10.04883057 396.50100098 9.25903809 397.01420898 8.4453125 397.54296875 C7.40298462 398.22008911 7.40298462 398.22008911 6.33959961 398.91088867 C4.71362896 399.97273399 3.09629586 401.04778193 1.48046875 402.125 C-3.47559327 401.94046578 -7.23852524 399.05405141 -11.26953125 396.4375 C-11.97529297 395.98632812 -12.68105469 395.53515625 -13.40820312 395.0703125 C-14.80900536 394.1724613 -16.20751154 393.27101614 -17.60351562 392.36572266 C-19.2506666 391.29910425 -20.90762277 390.24765497 -22.56640625 389.19921875 C-27.11245421 386.28193001 -27.11245421 386.28193001 -28.51953125 385.125 C-28.51953125 384.465 -28.51953125 383.805 -28.51953125 383.125 C-29.18339844 382.89683594 -29.84726563 382.66867187 -30.53125 382.43359375 C-34.4135384 380.73350667 -37.80696882 378.52517298 -41.33203125 376.1875 C-42.02490234 375.74470703 -42.71777344 375.30191406 -43.43164062 374.84570312 C-45.18433538 373.68702511 -46.85970287 372.41319385 -48.51953125 371.125 C-48.51953125 370.135 -48.51953125 369.145 -48.51953125 368.125 C-46.84570312 366.74975586 -46.84570312 366.74975586 -44.48828125 365.33984375 C-43.18890625 364.55009155 -43.18890625 364.55009155 -41.86328125 363.74438477 C-40.92484375 363.18936279 -39.98640625 362.63434082 -39.01953125 362.0625 C-37.0918327 360.90466951 -35.16475583 359.74580337 -33.23828125 358.5859375 C-32.2740625 358.00811523 -31.30984375 357.43029297 -30.31640625 356.83496094 C-27.75141901 355.26677216 -25.23898991 353.64476483 -22.73828125 351.9765625 C-22.02091797 351.50355713 -21.30355469 351.03055176 -20.56445312 350.54321289 C-19.2285279 349.6575404 -17.9011787 348.7587558 -16.58398438 347.84545898 C-14.76953125 346.66015625 -14.76953125 346.66015625 -11.51953125 345.125 C-8.23793076 345.85947586 -5.85694784 347.46921009 -3.08203125 349.3125 C1.03695577 351.40812498 2.12405945 351.23211601 6.48046875 350.125 C9.20417988 348.89807122 9.20417988 348.89807122 11.875 347.2734375 C12.89980469 346.67724609 13.92460937 346.08105469 14.98046875 345.46679688 C16.07359375 344.81775391 17.16671875 344.16871094 18.29296875 343.5 C19.45272175 342.82027504 20.61288552 342.14125052 21.7734375 341.46289062 C30.58562989 336.29879787 39.33693443 331.03129353 48.08129883 325.75341797 C55.49657366 321.28602117 62.97086256 316.9316747 70.48046875 312.625 C79.22328102 307.61024741 87.90834704 302.51142487 96.54296875 297.3125 C97.57429932 296.69173584 98.60562988 296.07097168 99.66821289 295.43139648 C101.66204914 294.23080175 103.65578622 293.03004233 105.64941406 291.82910156 C109.89919689 289.27102256 114.15343292 286.72091049 118.41796875 284.1875 C119.11607666 283.76815186 119.81418457 283.34880371 120.53344727 282.91674805 C125.25020648 280.125 125.25020648 280.125 127.48046875 280.125 C127.70051611 260.98364243 127.83441981 241.84351592 127.8664999 222.70089817 C127.8833929 213.81191361 127.92819575 204.92472434 128.03930664 196.03637695 C128.13611124 188.2867486 128.17993488 180.53891481 128.16082913 172.78867382 C128.152548 168.6860888 128.17032039 164.58743614 128.25161552 160.48556709 C129.34586219 144.54098147 129.34586219 144.54098147 125.01616478 129.90083694 C121.0421142 126.11048476 116.66041154 124.66618361 111.48046875 123.125 C109.61408667 122.09183593 107.77025168 121.01414302 105.9765625 119.859375 C104.29068312 118.8640436 102.60448179 117.86925733 100.91796875 116.875 C99.01169979 115.75003213 97.10545033 114.62503121 95.19921875 113.5 C94.24660156 112.93796875 93.29398437 112.3759375 92.3125 111.796875 C89.60701113 110.19970364 86.90283147 108.60034475 84.19921875 107 C76.31775218 102.33584708 68.43286799 97.67798502 60.52734375 93.0546875 C59.92760239 92.70388626 59.32786102 92.35308502 58.70994568 91.99165344 C57.80152672 91.46030037 57.80152672 91.46030037 56.87475586 90.91821289 C56.26405243 90.56099152 55.653349 90.20377014 55.0241394 89.83572388 C53.78893237 89.11321824 52.55368269 88.39078551 51.31838989 87.66842651 C41.45244899 81.89671174 31.63478558 76.05009755 21.86206055 70.12158203 C19.99012381 68.99045702 18.10873636 67.87479313 16.21728516 66.77661133 C13.48046875 65.125 13.48046875 65.125 10.75537109 63.15112305 C7.96232586 61.26867955 5.74644695 59.96470093 2.48046875 59.125 C-2.16165708 60.23997058 -5.71488311 62.66693051 -9.64453125 65.3125 C-10.77758102 66.02725137 -11.91355475 66.7373863 -13.05224609 67.44311523 C-15.40508118 68.90929505 -17.74094429 70.39802371 -20.06640625 71.90722656 C-25.33641709 75.31465024 -30.74995515 78.48272976 -36.14453125 81.6875 C-38.21672376 82.93523861 -40.28833983 84.18393507 -42.359375 85.43359375 C-49.43605717 89.68811433 -56.56876126 93.84409173 -63.70703125 97.99414062 C-73.07432951 103.44095991 -82.40354924 108.95080955 -91.72705078 114.47216797 C-94.68682916 116.2240214 -97.64792609 117.97362838 -100.609375 119.72265625 C-101.60888184 120.31296631 -102.60838867 120.90327637 -103.63818359 121.51147461 C-105.5512361 122.64125127 -107.46432027 123.77097433 -109.37744141 124.90063477 C-110.24030762 125.41037842 -111.10317383 125.92012207 -111.9921875 126.4453125 C-112.74765869 126.89148926 -113.50312988 127.33766602 -114.28149414 127.79736328 C-115.02004639 128.2354834 -115.75859863 128.67360352 -116.51953125 129.125 C-117.37717921 129.525534 -118.23482718 129.926068 -119.11846447 130.3387394 C-121.76748958 131.91129462 -121.76748958 131.91129462 -122.15711689 134.7759304 C-122.16289847 135.85069948 -122.16868006 136.92546856 -122.17463684 138.0328064 C-122.19307144 139.26658524 -122.21150604 140.50036407 -122.23049927 141.77153015 C-122.22556193 143.14114579 -122.22008097 144.51075956 -122.21411133 145.88037109 C-122.22579647 147.32097638 -122.23956507 148.76156605 -122.25526428 150.20213318 C-122.29092403 154.11760708 -122.29437599 158.03248961 -122.28995347 161.94810057 C-122.28876521 165.21603809 -122.30220315 168.48385198 -122.31533641 171.75175822 C-122.34568597 179.46187177 -122.34897891 187.17168304 -122.33618164 194.88183594 C-122.32350253 202.83650607 -122.35866498 210.78996259 -122.41706544 218.74440134 C-122.46536954 225.57258306 -122.48274097 232.40037585 -122.47559088 239.22872412 C-122.47170848 243.30758858 -122.47984801 247.38553959 -122.51819801 251.46424484 C-122.55302485 255.30125536 -122.54924661 259.136325 -122.5158596 262.97332954 C-122.51007936 264.380619 -122.51792734 265.78804099 -122.54046631 267.19516182 C-122.95856383 274.69603942 -122.95856383 274.69603942 -119.70704365 281.00841522 C-117.5734363 282.38304798 -117.5734363 282.38304798 -115.3305378 283.27912712 C-113.51953125 284.125 -113.51953125 284.125 -112.53930664 286.63183594 C-112.54438232 287.53192383 -112.54945801 288.43201172 -112.5546875 289.359375 C-112.5355127 290.41060547 -112.51633789 291.46183594 -112.49658203 292.54492188 C-112.50415527 293.72634766 -112.51172852 294.90777344 -112.51953125 296.125 C-112.47833648 297.48005378 -112.42967234 298.83489598 -112.37451172 300.18945312 C-112.19643042 304.58383609 -112.07413391 308.97863138 -111.95703125 313.375 C-111.91371176 314.91016475 -111.87009388 316.44532112 -111.82617188 317.98046875 C-111.72052682 321.69522235 -111.61888991 325.4100723 -111.51953125 329.125 C-115.74366839 327.51282932 -119.30308085 325.42215042 -123.01953125 322.875 C-124.33977906 321.9842791 -125.66009578 321.09366036 -126.98046875 320.203125 C-128.49355911 319.17718587 -130.00657437 318.15113597 -131.51953125 317.125 C-135.22316811 314.61796444 -138.93263021 312.11977874 -142.64453125 309.625 C-143.54494141 309.01366211 -144.44535156 308.40232422 -145.37304688 307.77246094 C-146.65598633 306.91056152 -146.65598633 306.91056152 -147.96484375 306.03125 C-148.72297363 305.51884766 -149.48110352 305.00644531 -150.26220703 304.47851562 C-153.18831501 302.72399014 -156.21935804 301.51562601 -159.49031067 300.53289604 C-165.73213841 298.51874989 -170.9102091 295.7591232 -174.51953125 290.125 C-177.59565338 279.12258008 -176.55049955 267.00145249 -176.2432282 255.69136643 C-176.13645752 251.09672326 -176.12693237 246.50186599 -176.10679626 241.90617371 C-176.05409718 233.21724483 -175.91480556 224.53198164 -175.74385494 215.84466237 C-175.55338462 205.94910592 -175.46025903 196.05336789 -175.37503254 186.15643275 C-175.19765866 165.81052545 -174.89548405 145.4681236 -174.51953125 125.125 C-184.08953125 125.125 -193.65953125 125.125 -203.51953125 125.125 C-200.83114935 122.4366181 -198.87217794 121.05427625 -195.6015625 119.26171875 C-194.60705078 118.71193359 -193.61253906 118.16214844 -192.58789062 117.59570312 C-191.51345703 117.00724609 -190.43902344 116.41878906 -189.33203125 115.8125 C-187.04586716 114.54739246 -184.76073533 113.28041801 -182.4765625 112.01171875 C-181.60295578 111.52673416 -181.60295578 111.52673416 -180.71170044 111.0319519 C-174.93094998 107.81416487 -169.22197398 104.4789592 -163.51953125 101.125 C-155.26125628 96.27452358 -146.94858838 91.53616861 -138.58203125 86.875 C-134.5597735 84.62753819 -130.53900154 82.377443 -126.51953125 80.125 C-125.75656738 79.69832031 -124.99360352 79.27164063 -124.20751953 78.83203125 C-113.24202599 72.66410122 -102.81551306 65.73701386 -92.3815918 58.72192383 C-86.46220428 54.74336966 -80.53452555 50.79736053 -74.45703125 47.0625 C-64.05456021 40.66542426 -53.89128585 33.89370408 -43.68164062 27.1953125 C-38.33696711 23.69602039 -32.97753656 20.21931581 -27.6081543 16.75805664 C-23.51231853 14.10880115 -19.46367245 11.40938614 -15.4609375 8.62109375 C-14.64109375 8.05559814 -13.82125 7.49010254 -12.9765625 6.9074707 C-11.42210459 5.83149041 -9.8759272 4.74341032 -8.33984375 3.64135742 C-3.29474993 0.16346046 -3.29474993 0.16346046 0 0 Z " fill="#3297CA" transform="translate(250.51953125,49.875)"/>
<path d="M0 0 C2.50341797 1.17651367 2.50341797 1.17651367 4.9921875 2.66796875 C6.40177734 3.50231445 6.40177734 3.50231445 7.83984375 4.35351562 C9.34224609 5.26133789 9.34224609 5.26133789 10.875 6.1875 C13.03891592 7.47290305 15.2029826 8.75805232 17.3671875 10.04296875 C19.02186035 11.03176025 19.02186035 11.03176025 20.70996094 12.04052734 C25.7855 15.06340331 30.89315966 18.03042631 36 21 C37.98193632 22.15596632 39.9637063 23.31221787 41.9453125 24.46875 C46.12661252 26.90795536 50.30907022 29.34516257 54.4921875 31.78125 C55.56082031 32.40386719 56.62945312 33.02648437 57.73046875 33.66796875 C59.75620514 34.84818039 61.78222491 36.02790584 63.80859375 37.20703125 C64.73542969 37.74714844 65.66226563 38.28726563 66.6171875 38.84375 C67.81770752 39.54274414 67.81770752 39.54274414 69.04248047 40.25585938 C70.01846191 40.83142578 70.99444336 41.40699219 72 42 C72.82420441 42.24576782 73.64840881 42.49153564 74.49758911 42.74475098 C77.9273363 44.06894566 79.63588749 45.14691647 82 48 C84.20296458 55.12283572 83.75467806 63.02869771 83.8203125 70.40625 C83.86263793 72.65101769 83.90585446 74.89576874 83.94992065 77.14050293 C84.02782957 81.84829463 84.06235265 86.55429861 84.07275391 91.26269531 C84.08982129 96.07846136 84.18685428 100.88167408 84.35986328 105.69433594 C85.77233765 145.61263501 85.77233765 145.61263501 79.72790527 153.47851562 C74.27786038 158.57038959 68.27721134 160.96060183 61.18273926 162.95326233 C55.65169566 164.77230914 50.91546226 167.93616372 46 171 C44.01900445 172.1633261 42.03501169 173.32157699 40.046875 174.47265625 C39.05880859 175.04902832 38.07074219 175.62540039 37.05273438 176.21923828 C15.578125 188.74609375 15.578125 188.74609375 12.83007812 190.33154297 C10.81348287 191.52041564 8.81939817 192.74782401 6.84179688 194.00048828 C5.79572266 194.65130371 4.74964844 195.30211914 3.671875 195.97265625 C2.72924805 196.574729 1.78662109 197.17680176 0.81542969 197.79711914 C-2.6828887 199.29176141 -4.37591542 199.04467564 -8 198 C-10.42407227 196.87109375 -10.42407227 196.87109375 -12.81640625 195.4375 C-13.73212402 194.89569092 -14.6478418 194.35388184 -15.59130859 193.7956543 C-16.57180176 193.20308838 -17.55229492 192.61052246 -18.5625 192 C-20.69130673 190.73550952 -22.82021794 189.47119492 -24.94921875 188.20703125 C-26.08020996 187.5310791 -27.21120117 186.85512695 -28.37646484 186.15869141 C-34.20329343 182.68056905 -40.06417743 179.26019149 -45.92062378 175.83227539 C-47.85759456 174.69769523 -49.79335602 173.56107897 -51.72875977 172.42382812 C-52.6344294 171.89206718 -52.6344294 171.89206718 -53.55839539 171.3495636 C-55.20298186 170.38393576 -56.84734783 169.4179324 -58.49169922 168.4519043 C-59.97220131 167.59493078 -61.46995685 166.76502158 -63 166 C-63 197.68 -63 229.36 -63 262 C-65.64 260.68 -68.28 259.36 -71 258 C-72.61599102 257.41872988 -74.23905629 256.85623225 -75.87226868 256.32527161 C-81.98530571 253.79008384 -86.56558904 250.77424315 -90 245 C-94.00619654 232.21811116 -92.26181152 217.08948712 -91.92648482 203.9018476 C-91.80716198 198.41570295 -91.79650757 192.92933491 -91.77400208 187.4420929 C-91.71510154 177.06734961 -91.5594166 166.6964408 -91.36836177 156.32338125 C-91.15549134 144.50764537 -91.051403 132.69171969 -90.95614851 120.87454164 C-90.75790332 96.58090721 -90.42402828 72.29066903 -90 48 C-89.25182259 47.56884384 -88.50364517 47.13768768 -87.73279572 46.69346619 C-84.92346606 45.07428823 -82.11432476 43.45478409 -79.30530548 41.83506775 C-78.09579485 41.13773493 -76.88621195 40.44052743 -75.67655182 39.74345398 C-67.24902452 34.88689807 -58.84900084 29.9906309 -50.5 25 C-38.24197719 17.7031254 -25.90191568 10.55786 -13.52587891 3.46362305 C-10.96152109 2.03101866 -10.96152109 2.03101866 -8.54833984 0.24926758 C-5.19960334 -1.39237687 -3.54885535 -1.01069875 0 0 Z M-10.0390625 34.7890625 C-11.08336426 35.39443848 -12.12766602 35.99981445 -13.20361328 36.62353516 C-14.3326709 37.28401855 -15.46172852 37.94450195 -16.625 38.625 C-17.7926002 39.30422758 -18.96040869 39.98309722 -20.12841797 40.66162109 C-22.5467041 42.06750335 -24.96341687 43.4760369 -27.37890625 44.88671875 C-30.84296073 46.90950397 -34.31172171 48.92411606 -37.78125 50.9375 C-39.89599245 52.16639289 -42.01058235 53.39554835 -44.125 54.625 C-45.10033691 55.1917041 -46.07567383 55.7584082 -47.08056641 56.34228516 C-48.00530762 56.88159668 -48.93004883 57.4209082 -49.8828125 57.9765625 C-50.68090332 58.44143066 -51.47899414 58.90629883 -52.30126953 59.38525391 C-53.19185059 59.91812012 -54.08243164 60.45098633 -55 61 C-55.67979416 61.25352737 -56.35958832 61.50705475 -57.0599823 61.76826477 C-59.63571395 62.91279325 -61.14904245 63.85560701 -63 66 C-64.25287109 71.02138529 -64.15167288 76.01388354 -64.09765625 81.15234375 C-64.10559122 82.65541376 -64.11575237 84.15847352 -64.1280365 85.66151428 C-64.14432266 88.80844423 -64.13125141 91.95355917 -64.09790039 95.1003418 C-64.05793675 99.12467011 -64.09450956 103.14403236 -64.15367985 107.16797543 C-64.19018589 110.2713547 -64.18404187 113.37355833 -64.16540337 116.47705269 C-64.16192672 117.95977408 -64.17198855 119.44259369 -64.19609261 120.92512321 C-64.54240447 129.10484882 -64.54240447 129.10484882 -61.11463928 136.16542053 C-58.80524142 137.73589184 -56.56020001 138.89436182 -54 140 C-53.02071533 140.58080322 -52.04143066 141.16160645 -51.0324707 141.76000977 C-50.17226318 142.23237061 -49.31205566 142.70473145 -48.42578125 143.19140625 C-47.43860107 143.73772705 -46.4514209 144.28404785 -45.43432617 144.84692383 C-44.40412354 145.41306396 -43.3739209 145.9792041 -42.3125 146.5625 C-32.73327389 151.86491576 -23.26668145 157.32111067 -13.90551758 163.00024414 C-13.05368896 163.51192139 -12.20186035 164.02359863 -11.32421875 164.55078125 C-10.58260498 165.00106689 -9.84099121 165.45135254 -9.0769043 165.9152832 C-6.94814499 167.02708261 -5.39231316 167.7554666 -3 168 C-0.72340315 167.17064615 -0.72340315 167.17064615 1.578125 165.74609375 C2.48014648 165.22805176 3.38216797 164.71000977 4.31152344 164.17626953 C5.2812207 163.60247559 6.25091797 163.02868164 7.25 162.4375 C8.25836914 161.85339355 9.26673828 161.26928711 10.30566406 160.66748047 C12.44652539 159.42519925 14.58414025 158.17730924 16.71875 156.92431641 C19.96091641 155.0229209 23.21311014 153.13993452 26.46875 151.26171875 C33.79936177 147.04676308 33.79936177 147.04676308 41.06031799 142.71424866 C44 141 44 141 46.87992859 139.6784668 C51.36702514 137.41046853 54.39676386 135.71481325 56.11276245 130.83676147 C56.64369621 126.82324695 56.82490133 122.94075156 56.84765625 118.8984375 C56.88307565 117.41497041 56.92008637 115.93154055 56.95860291 114.44815063 C57.02430149 111.34229823 57.04486969 108.23979834 57.03833008 105.13330078 C57.03743567 101.96480737 57.11342168 98.81381264 57.26391602 95.64892578 C58.61569493 78.65800057 58.61569493 78.65800057 52.95562744 63.37167358 C47.80998012 58.99749259 41.99977584 56.43266042 35.72335815 54.06689453 C32.03607517 52.62237573 28.88753524 50.73428411 25.515625 48.66015625 C23.42781441 47.45966516 21.33930603 46.26038656 19.25 45.0625 C17.12971052 43.84591927 15.00991134 42.62848361 12.890625 41.41015625 C11.90384766 40.84312988 10.91707031 40.27610352 9.90039062 39.69189453 C6.21433355 37.54169457 2.57761502 35.31486628 -1.04785156 33.06420898 C-4.77635035 31.03162692 -6.59810503 32.78508048 -10.0390625 34.7890625 Z " fill="#2C8EC7" transform="translate(254,151)"/>
<path d="M0 0 C0.33 0 0.66 0 1 0 C1.35121714 14.82050785 1.61530009 29.64046166 1.77718258 44.46429253 C1.85436652 51.3483825 1.95946794 58.22987988 2.1315918 65.11230469 C2.29772126 71.75824016 2.38433474 78.40219754 2.42315865 85.05029678 C2.45081177 87.58235112 2.50482005 90.114263 2.58595085 92.6451683 C3.18120594 111.98913301 3.18120594 111.98913301 -0.47167015 117.03144646 C-4.47092592 120.79356806 -8.98953558 122.876171 -14 125 C-15.51730178 125.93778426 -17.02023153 126.90140277 -18.48046875 127.92578125 C-19.71548093 128.72238594 -20.95115024 129.51797286 -22.1875 130.3125 C-23.62252761 131.23807698 -25.05741746 132.16386756 -26.4921875 133.08984375 C-27.59191895 133.79923096 -27.59191895 133.79923096 -28.71386719 134.52294922 C-32.75211768 137.13202819 -36.7821386 139.75375728 -40.8125 142.375 C-41.64869873 142.91874268 -42.48489746 143.46248535 -43.34643555 144.02270508 C-45.04821203 145.1293408 -46.74995344 146.23603044 -48.45166016 147.34277344 C-52.63395863 150.06258969 -56.81701304 152.78124278 -61 155.5 C-62.66667039 156.58332761 -64.33333705 157.66666095 -66 158.75 C-69.33333333 160.91666667 -72.66666667 163.08333333 -76 165.25 C-76.8252417 165.78641113 -77.6504834 166.32282227 -78.50073242 166.87548828 C-80.1649428 167.9572169 -81.82916803 169.03892268 -83.4934082 170.12060547 C-87.69777895 172.85330245 -91.90187914 175.58641405 -96.10546875 178.3203125 C-104.58858637 183.83694114 -113.07614542 189.34650231 -121.57373047 194.84082031 C-129.51704299 199.97832298 -137.44673412 205.13675284 -145.37695312 210.29443359 C-148.12066538 212.07845945 -150.86494882 213.86160386 -153.609375 215.64453125 C-154.52227295 216.23766113 -155.4351709 216.83079102 -156.37573242 217.44189453 C-158.13102433 218.5823159 -159.88639213 219.72262047 -161.6418457 220.86279297 C-162.82653442 221.63260498 -162.82653442 221.63260498 -164.03515625 222.41796875 C-165.07748413 223.09508911 -165.07748413 223.09508911 -166.14086914 223.78588867 C-167.76683979 224.84773399 -169.38417289 225.92278193 -171 227 C-175.95606202 226.81546578 -179.71899399 223.92905141 -183.75 221.3125 C-184.45576172 220.86132812 -185.16152344 220.41015625 -185.88867188 219.9453125 C-187.28947411 219.0474613 -188.68798029 218.14601614 -190.08398438 217.24072266 C-191.73113535 216.17410425 -193.38809152 215.12265497 -195.046875 214.07421875 C-199.59292296 211.15693001 -199.59292296 211.15693001 -201 210 C-201 209.34 -201 208.68 -201 208 C-201.66386719 207.77183594 -202.32773438 207.54367187 -203.01171875 207.30859375 C-206.89400715 205.60850667 -210.28743757 203.40017298 -213.8125 201.0625 C-214.50537109 200.61970703 -215.19824219 200.17691406 -215.91210938 199.72070312 C-217.66480413 198.56202511 -219.34017162 197.28819385 -221 196 C-221 195.01 -221 194.02 -221 193 C-219.32617187 191.62475586 -219.32617187 191.62475586 -216.96875 190.21484375 C-216.1025 189.68834229 -215.23625 189.16184082 -214.34375 188.61938477 C-212.93609375 187.78685181 -212.93609375 187.78685181 -211.5 186.9375 C-209.57230145 185.77966951 -207.64522458 184.62080337 -205.71875 183.4609375 C-204.75453125 182.88311523 -203.7903125 182.30529297 -202.796875 181.70996094 C-200.23188776 180.14177216 -197.71945866 178.51976483 -195.21875 176.8515625 C-194.50138672 176.37855713 -193.78402344 175.90555176 -193.04492188 175.41821289 C-191.70899665 174.5325404 -190.38164745 173.6337558 -189.06445312 172.72045898 C-187.25 171.53515625 -187.25 171.53515625 -184 170 C-180.71839951 170.73447586 -178.33741659 172.34421009 -175.5625 174.1875 C-171.44351298 176.28312498 -170.3564093 176.10711601 -166 175 C-163.27628887 173.77307122 -163.27628887 173.77307122 -160.60546875 172.1484375 C-159.06826172 171.25415039 -159.06826172 171.25415039 -157.5 170.34179688 C-155.8603125 169.36823242 -155.8603125 169.36823242 -154.1875 168.375 C-153.027747 167.69527504 -151.86758323 167.01625052 -150.70703125 166.33789062 C-141.89483886 161.17379787 -133.14353432 155.90629353 -124.39916992 150.62841797 C-116.98389509 146.16102117 -109.50960619 141.8066747 -102 137.5 C-93.25718081 132.48524345 -84.57230006 127.38613629 -75.9375 122.1875 C-74.90544434 121.56673584 -73.87338867 120.94597168 -72.81005859 120.30639648 C-68.97502358 117.99841612 -65.14060105 115.6894539 -61.31005859 113.37402344 C-58.91867819 111.93067255 -56.52258504 110.49551231 -54.125 109.0625 C-53.435271 108.64315186 -52.74554199 108.22380371 -52.03491211 107.79174805 C-47.34224565 105 -47.34224565 105 -44 105 C-44 73.65 -44 42.3 -44 10 C-42 9 -42 9 -36 9 C-33.36 20.55 -30.72 32.1 -28 44 C-26.39125 41.339375 -24.7825 38.67875 -23.125 35.9375 C-19.06629011 29.26449988 -14.88300154 22.69936696 -10.51049805 16.22802734 C-7.32375922 11.51126799 -4.27234836 6.72024312 -1.27734375 1.87890625 C-0.85582031 1.25886719 -0.43429687 0.63882813 0 0 Z " fill="#1A71BC" transform="translate(423,225)"/>
<path d="M0 0 C2.67483318 2.62543049 4.8939529 5.11486794 6.91796875 8.2734375 C7.71037964 9.50175293 7.71037964 9.50175293 8.51879883 10.75488281 C9.06947021 11.61952148 9.6201416 12.48416016 10.1875 13.375 C10.75686279 14.26026367 11.32622559 15.14552734 11.9128418 16.05761719 C13.61280831 18.70238152 15.30645456 21.35112124 17 24 C17.94982119 25.47701265 18.90028426 26.95361285 19.8515625 28.4296875 C21.90539868 31.61701431 23.95439886 34.8073822 26 38 C28.32186986 28.82367389 30.58833978 19.63949822 32.69238281 10.41040039 C33.8925114 5.2149772 33.8925114 5.2149772 35 3 C39.51194814 3.4101771 43.49655287 4.0604395 47.78515625 5.54296875 C48.57929932 5.81520264 49.37344238 6.08743652 50.19165039 6.36791992 C50.78840576 6.57650635 51.38516113 6.78509277 52 7 C51.99476318 8.24170456 51.98952637 9.48340912 51.98413086 10.76274109 C51.93999818 22.46072691 51.93777323 34.1580688 51.97665405 45.85608196 C51.99529489 51.87037808 51.99913361 57.88392711 51.96923828 63.89819336 C51.94093357 69.70170437 51.95138818 75.50396659 51.98880005 81.3074131 C51.99625068 83.52219188 51.98969825 85.73706318 51.96896362 87.95175743 C51.942309 91.0534749 51.96529563 94.15113231 52 97.25268555 C51.98058853 98.16978302 51.96117706 99.08688049 51.94117737 100.0317688 C51.99988698 102.59740156 52.11700046 104.58788272 53 107 C54.95858756 108.75330534 56.82389417 109.86730396 59.18943119 111.00412083 C61 112 61 112 61.98022461 114.50683594 C61.97514893 115.40692383 61.97007324 116.30701172 61.96484375 117.234375 C61.98401855 118.28560547 62.00319336 119.33683594 62.02294922 120.41992188 C62.01537598 121.60134766 62.00780273 122.78277344 62 124 C62.04119477 125.35505378 62.08985891 126.70989598 62.14501953 128.06445312 C62.32310083 132.45883609 62.44539734 136.85363138 62.5625 141.25 C62.60581949 142.78516475 62.64943737 144.32032112 62.69335938 145.85546875 C62.79900443 149.57022235 62.90064134 153.2850723 63 157 C58.77586286 155.38782932 55.2164504 153.29715042 51.5 150.75 C50.17975219 149.8592791 48.85943547 148.96866036 47.5390625 148.078125 C46.02597214 147.05218587 44.51295688 146.02613597 43 145 C39.29636314 142.49296444 35.58690104 139.99477874 31.875 137.5 C30.97458984 136.88866211 30.07417969 136.27732422 29.14648438 135.64746094 C28.29119141 135.07286133 27.43589844 134.49826172 26.5546875 133.90625 C25.79655762 133.39384766 25.03842773 132.88144531 24.25732422 132.35351562 C22.08457062 130.96927289 22.08457062 130.96927289 19.9032135 130.16194153 C18.94515305 129.77850082 17.98709259 129.39506012 17 129 C16.34964279 128.74993635 15.69928558 128.4998727 15.02922058 128.24223137 C9.24011752 125.85374978 3.87091141 123.04788675 0 118 C-3.07981234 109.54952911 -1.97320882 99.94133241 -1.66015625 91.11328125 C-1.62841725 88.48349298 -1.6042334 85.85360364 -1.58726501 83.22367859 C-1.53466245 77.03085392 -1.39553197 70.84320197 -1.22432369 64.65264434 C-1.03352653 57.59884508 -0.94065105 50.54478286 -0.85550129 43.48904097 C-0.67835603 28.99003915 -0.3798408 14.49509185 0 0 Z " fill="#56D3E1" transform="translate(76,222)"/>
<path d="M0 0 C4.7275228 0.51540662 7.95192803 2.71292703 11.75 5.375 C13.09034925 6.29153061 14.43152661 7.2068511 15.7734375 8.12109375 C16.46791992 8.59659668 17.16240234 9.07209961 17.87792969 9.56201172 C21.34137858 11.90896455 24.85715008 14.17323956 28.375 16.4375 C29.43702637 17.12271729 29.43702637 17.12271729 30.52050781 17.82177734 C31.96102866 18.75117716 33.4017843 19.68021313 34.84277344 20.60888672 C38.39802426 22.90153262 41.94880194 25.20108373 45.5 27.5 C46.91664483 28.41670042 48.3333115 29.33336707 49.75 30.25 C52.58333333 32.08333333 55.41666667 33.91666667 58.25 35.75 C58.95261963 36.20455566 59.65523926 36.65911133 60.37915039 37.12744141 C61.78228004 38.03551035 63.18511683 38.94403198 64.58764648 39.85302734 C68.3340336 42.2802149 72.08658659 44.69717779 75.84765625 47.1015625 C77.03101563 47.86049805 77.03101563 47.86049805 78.23828125 48.63476562 C79.7637936 49.61288825 81.29108453 50.58824362 82.8203125 51.56054688 C84.564123 52.6806225 86.28484079 53.8365253 88 55 C88 55.33 88 55.66 88 56 C78.76 56 69.52 56 60 56 C60.16242188 58.92101562 60.32484375 61.84203125 60.4921875 64.8515625 C62.17516803 103.33952705 62.17516803 103.33952705 47.9765625 119.61572266 C44.47592327 123.83845521 41.70669855 128.53882606 38.8125 133.1875 C37.76339567 134.83123773 36.70794831 136.47095421 35.64453125 138.10546875 C34.98481323 139.12870239 34.98481323 139.12870239 34.31176758 140.17260742 C33.01295709 141.98194978 31.61906758 143.47570133 30 145 C28.99771376 140.51713009 28.00096165 136.03307874 27.00927734 131.54785156 C26.67127184 130.02277592 26.33176687 128.4980318 25.99072266 126.97363281 C25.50026464 124.78015587 25.01524351 122.58553618 24.53125 120.390625 C24.37813354 119.7113092 24.22501709 119.03199341 24.06726074 118.33209229 C23.35974903 115.09927826 23 112.33549386 23 109 C20.36 109.33 17.72 109.66 15 110 C15 141.35 15 172.7 15 205 C14.67 205 14.34 205 14 205 C14.00867316 204.24554376 14.01734632 203.49108751 14.02628231 202.71376896 C14.23238815 184.3344774 14.35522835 165.95634249 14.38603115 147.57589817 C14.40292415 138.68691361 14.447727 129.79972434 14.55883789 120.91137695 C14.65564249 113.1617486 14.69946613 105.41391481 14.68036038 97.66367382 C14.67207925 93.5610888 14.68985164 89.46243614 14.77114677 85.36056709 C15.85790008 69.43286026 15.85790008 69.43286026 11.55879593 54.78867722 C8.15102606 51.51748556 4.4316561 49.9199871 -0.05998039 48.63642693 C-3.32547829 47.56517446 -6.02752363 45.7504495 -8.9375 43.9375 C-10.62442798 42.95734817 -12.31169182 41.97777252 -14 41 C-11.262869 38.262869 -8.29753263 38.05664431 -4.625 37.375 C-3.61566406 37.17390625 -3.61566406 37.17390625 -2.5859375 36.96875 C0.69811366 36.33521257 3.63976628 36 7 36 C6.78851318 35.07888428 6.78851318 35.07888428 6.57275391 34.13916016 C5.92207484 31.30143203 5.27352792 28.46322049 4.625 25.625 C4.40328125 24.65949219 4.1815625 23.69398438 3.953125 22.69921875 C2.87667192 17.98182142 1.82233092 13.26056147 0.8359375 8.5234375 C0.67399902 7.74661621 0.51206055 6.96979492 0.34521484 6.16943359 C0 4 0 4 0 0 Z " fill="#05AFEE" transform="translate(364,125)"/>
<path d="M0 0 C0.99 0.495 0.99 0.495 2 1 C1.38253906 1.80179687 0.76507813 2.60359375 0.12890625 3.4296875 C-2.51470849 7.40384018 -3.22805965 11.4860852 -4.0625 16.125 C-4.39013658 17.81154674 -4.71956581 19.4977462 -5.05078125 21.18359375 C-5.20885254 22.0019873 -5.36692383 22.82038086 -5.52978516 23.66357422 C-6.50061642 28.48748659 -7.74656957 33.24266178 -9 38 C-4.11673993 39.12074821 0.75000923 40.14777556 5.6875 41 C9.60327136 41.69295954 13.26854983 42.58809994 17 44 C14.00257019 46.74696759 11.14543684 48.44266805 7.41479492 49.9465332 C-1.98613672 53.82802323 -1.98613672 53.82802323 -8.05462646 61.50970459 C-9.56498595 68.67924377 -9.07137658 75.9198338 -8.6875 83.1875 C-8.64035174 85.4015239 -8.60185976 87.61575002 -8.57226562 89.83007812 C-8.48140032 95.22754933 -8.27310484 100.60880238 -8 106 C-13.61 104.68 -19.22 103.36 -25 102 C-25.391875 104.2275 -25.78375 106.455 -26.1875 108.75 C-27.98352692 118.61555908 -30.48494197 128.29764174 -33 138 C-35.87084848 135.2892259 -38.05488025 132.60418463 -40.13671875 129.25390625 C-40.71486328 128.33287109 -41.29300781 127.41183594 -41.88867188 126.46289062 C-42.48228516 125.50576172 -43.07589844 124.54863281 -43.6875 123.5625 C-44.8552416 121.68703622 -46.02585369 119.81335691 -47.19921875 117.94140625 C-48.0962854 116.47344604 -48.0962854 116.47344604 -49.01147461 114.97583008 C-50.94695238 111.93556555 -50.94695238 111.93556555 -53.44360352 109.2331543 C-62.26854776 98.77727759 -61.03276084 87.81635457 -60.5625 74.6875 C-60.51727514 72.48250419 -60.47622474 70.27741861 -60.43945312 68.07226562 C-60.34878536 62.71077855 -60.17269097 57.36194794 -60 52 C-69.57 52 -79.14 52 -89 52 C-86.3116181 49.3116181 -84.35264669 47.92927625 -81.08203125 46.13671875 C-80.08751953 45.58693359 -79.09300781 45.03714844 -78.06835938 44.47070312 C-76.99392578 43.88224609 -75.91949219 43.29378906 -74.8125 42.6875 C-72.52633591 41.42239246 -70.24120408 40.15541801 -67.95703125 38.88671875 C-67.37462677 38.56339569 -66.79222229 38.24007263 -66.19216919 37.9069519 C-60.41141809 34.68916451 -54.70245548 31.35393859 -49 28 C-39.64149059 22.50374487 -30.21026295 17.15107187 -20.72265625 11.88085938 C-19.75714844 11.34396484 -18.79164062 10.80707031 -17.796875 10.25390625 C-16.85392578 9.73070801 -15.91097656 9.20750977 -14.93945312 8.66845703 C-10.70963959 6.26758114 -6.55639008 3.74025394 -2.40722656 1.20288086 C-1.6128418 0.80593018 -0.81845703 0.40897949 0 0 Z " fill="#03B0EF" transform="translate(136,123)"/>
<path d="M0 0 C1.65 0 3.3 0 5 0 C5 0.99 5 1.98 5 3 C5.66 3 6.32 3 7 3 C7 2.01 7 1.02 7 0 C13.6 0 20.2 0 27 0 C27 0.99 27 1.98 27 3 C27.66 3 28.32 3 29 3 C29 2.01 29 1.02 29 0 C30.65 0 32.3 0 34 0 C34.25 2.75 34.25 2.75 34 6 C32.71340837 7.37849103 31.37086915 8.70529025 30 10 C29.31710586 11.33586064 28.67390841 12.69244605 28.0625 14.0625 C26.29479512 17.72758695 24.96537326 19.55804609 21 21 C16.93960797 21.58941175 14.55524879 21.86867063 10.96484375 19.86328125 C7.715743 17.32137697 6.18301378 15.86515604 5.3125 11.75 C5.209375 10.8425 5.10625 9.935 5 9 C4.34 8.690625 3.68 8.38125 3 8.0625 C2.34 7.711875 1.68 7.36125 1 7 C0.25 3.375 0.25 3.375 0 0 Z " fill="#1357B3" transform="translate(236,236)"/>
<path d="M0 0 C0.68707555 2.49064888 1 4.37886292 1 7 C2.32 7 3.64 7 5 7 C8.84684804 10.7369381 9.06803498 12.4082099 10 18 C-1.55 18 -13.1 18 -25 18 C-23.76377953 10.58267717 -23.76377953 10.58267717 -21 7 C-18.8125 6.1875 -18.8125 6.1875 -17 6 C-16.67 7.65 -16.34 9.3 -16 11 C-15.34 11 -14.68 11 -14 11 C-14.99 7.7 -15.98 4.4 -17 1 C-11.04992163 -2.96671891 -6.56611712 -1.73093719 0 0 Z " fill="#185BB4" transform="translate(261,209)"/>
<path d="M0 0 C16.83 0 33.66 0 51 0 C51 2.64 51 5.28 51 8 C34.17 8 17.34 8 0 8 C0 5.36 0 2.72 0 0 Z " fill="#2967BA" transform="translate(228,284)"/>
<path d="M0 0 C5.28985507 1.05797101 5.28985507 1.05797101 8 5 C12.68835156 6.56278385 17.14513045 6.48387901 21.875 5.25 C24.34207577 3.79877896 25.02703346 2.65354511 26 0 C27.32 0 28.64 0 30 0 C30 4.95 30 9.9 30 15 C20.1 15 10.2 15 0 15 C0 10.05 0 5.1 0 0 Z " fill="#2060B7" transform="translate(238,267)"/>
<path d="M0 0 C0 4.29 0 8.58 0 13 C-0.99 13 -1.98 13 -3 13 C-3 16.3 -3 19.6 -3 23 C-7.29 23 -11.58 23 -16 23 C-15.76081358 15.46562778 -13.97579777 10.71663877 -9 5 C-3.38228438 0 -3.38228438 0 0 0 Z " fill="#1458B3" transform="translate(228,269)"/>
<path d="M0 0 C6.64266473 2.59225941 10.99691604 7.42928511 14.4375 13.5625 C15.17313779 16.75026376 15.127765 19.74199254 15 23 C10.71 23 6.42 23 2 23 C2 19.7 2 16.4 2 13 C1.34 13 0.68 13 0 13 C0 8.71 0 4.42 0 0 Z " fill="#1357B3" transform="translate(279,269)"/>
<path d="M0 0 C0.556875 0.16242188 1.11375 0.32484375 1.6875 0.4921875 C4.19228372 1.04222447 6.437481 1.13281256 9 1.125 C9.845625 1.12757813 10.69125 1.13015625 11.5625 1.1328125 C13.84698944 1.00833711 15.80991574 0.63877457 18 0 C18.05410687 1.77049689 18.09284119 3.54146849 18.125 5.3125 C18.14820313 6.29863281 18.17140625 7.28476562 18.1953125 8.30078125 C18 11 18 11 16 14 C11.99219958 15.1732068 8.09160571 15.27870784 4.0625 14.25 C2 13 2 13 0 10 C-0.1953125 7.51953125 -0.1953125 7.51953125 -0.125 4.8125 C-0.10695312 3.91144531 -0.08890625 3.01039063 -0.0703125 2.08203125 C-0.04710937 1.39496094 -0.02390625 0.70789063 0 0 Z " fill="#2060B7" transform="translate(244,257)"/>
<path d="M0 0 C1.56047445 0.00015913 3.12095416 0.00585397 4.68139648 0.01586914 C5.91115456 0.01799156 5.91115456 0.01799156 7.16575623 0.02015686 C9.79470406 0.0257725 12.42356797 0.0383276 15.05249023 0.05102539 C16.8304838 0.05603838 18.60847869 0.06060163 20.38647461 0.06469727 C24.75434569 0.07574701 29.12215371 0.09302208 33.48999023 0.11352539 C33.48999023 1.76352539 33.48999023 3.41352539 33.48999023 5.11352539 C21.27999023 5.11352539 9.06999023 5.11352539 -3.51000977 5.11352539 C-3.84000977 3.79352539 -4.17000977 2.47352539 -4.51000977 1.11352539 C-3.51000977 0.11352539 -3.51000977 0.11352539 0 0 Z " fill="#5082C6" transform="translate(238.510009765625,228.886474609375)"/>
<path d="M0 0 C0 4.95 0 9.9 0 15 C-1.98 15 -3.96 15 -6 15 C-6 10.38 -6 5.76 -6 1 C-4 0 -4 0 0 0 Z " fill="#3670BE" transform="translate(236,267)"/>
<path d="M0 0 C1.65 0.33 3.3 0.66 5 1 C5 5.62 5 10.24 5 15 C3.35 15 1.7 15 0 15 C-1 14 -1 14 -1.1328125 11.09375 C-1.13023437 9.9078125 -1.12765625 8.721875 -1.125 7.5 C-1.12757813 6.3140625 -1.13015625 5.128125 -1.1328125 3.90625 C-1 1 -1 1 0 0 Z " fill="#316DBC" transform="translate(271,267)"/>
<path d="M0 0 C0.66 0.33 1.32 0.66 2 1 C-0.97 3.97 -3.94 6.94 -7 10 C-7 5.69032084 -4.83274712 4.10253255 -2 1 C-1.34 0.67 -0.68 0.34 0 0 Z " fill="#4B7FC5" transform="translate(223,271)"/>
</svg>
